<svg width="36" height="30" viewBox="0 0 36 30" fill="none" xmlns="http://www.w3.org/2000/svg">
<path d="M21.4521 30V19.8718C21.4521 15.5983 21.9041 11.8803 22.8082 8.71795C23.7123 5.55556 25.1096 2.64957 27 0H36C33.9452 2.73504 32.3425 5.55556 31.1918 8.46154C30.0411 11.2821 29.4658 13.9316 29.4658 16.4103H35.8767V30H21.4521ZM0 30V19.8718C0 15.6838 0.41096 12.0085 1.23288 8.84615C2.13699 5.59829 3.53425 2.64957 5.42466 0H14.5479C12.4931 2.73504 10.8904 5.55556 9.73973 8.46154C8.58904 11.2821 8.0137 13.9316 8.0137 16.4103H14.4247V30H0Z" fill="#CC0000"/>
</svg>
